<!--?xml version="1.0" standalone="no"?-->

<svg version="1.0" xmlns="http://www.w3.org/2000/svg" width="293.000000pt" height="300.000000pt" viewBox="0 0 293.000000 300.000000" preserveAspectRatio="xMidYMid meet">
<g transform="translate(0.000000,300.000000) scale(0.100000,-0.100000)" fill="#272727" stroke="none">
<path class="node" id="node1" d="M1407 2973 c-65 -46 -73 -157 -14 -198 35 -25 107 -20 140 10 34 32
37 85 7 115 -24 24 -32 25 -59 3 -15 -13 -18 -22 -11 -33 8 -13 10 -12 10 3 0
22 36 23 44 1 16 -42 -7 -73 -56 -74 -54 0 -74 68 -38 128 18 29 25 32 65 32
75 0 142 -44 179 -117 22 -43 21 -55 -13 -121 -35 -67 -108 -141 -245 -243
-148 -111 -206 -192 -228 -318 -14 -85 -1 -186 33 -258 13 -26 59 -97 102
-157 77 -108 102 -153 117 -211 l8 -30 1 36 c1 53 -22 109 -84 205 -75 116
-90 147 -109 235 -16 70 -16 80 0 150 30 132 78 204 219 325 165 143 245 250
245 328 -1 47 -32 107 -80 149 -80 73 -166 88 -233 40z"></path>
<path class="node" id="node2" d="M1805 2550 c-253 -65 -435 -225 -476 -418 -20 -98 -4 -151 116 -381
43 -84 49 -102 53 -172 3 -44 8 -79 13 -79 5 0 9 1 9 3 0 1 4 28 10 60 13 84
-16 213 -71 310 -26 46 -49 147 -48 212 1 166 121 332 290 402 85 34 241 44
316 19 137 -45 196 -172 137 -293 -55 -110 -204 -110 -254 0 -33 72 -20 146
31 172 68 36 127 1 119 -70 -5 -52 -55 -50 -62 2 l-4 28 -9 -29 c-19 -69 50
-112 100 -62 45 45 28 118 -39 169 -74 57 -155 20 -181 -81 -12 -45 -12 -60 1
-109 32 -124 117 -177 219 -138 112 42 168 209 111 331 -57 123 -201 170 -381
124z"></path>
<path class="node" id="node3" d="M1562 2180 c-54 -39 -72 -76 -72 -148 0 -58 33 -168 65 -218 7 -11
23 -52 34 -90 26 -81 22 -115 -20 -199 -34 -67 -32 -81 4 -33 84 111 88 192
18 345 -65 144 -65 232 0 288 56 47 139 23 173 -50 15 -32 16 -44 7 -76 -14
-45 -53 -79 -92 -79 -59 0 -95 101 -47 134 30 21 62 1 66 -43 4 -36 17 -41 26
-8 11 41 6 66 -16 81 -33 24 -64 19 -100 -13 -28 -25 -33 -36 -33 -74 0 -117
140 -133 216 -26 44 62 7 170 -75 220 -47 29 -105 25 -154 -11z"></path>
<path class="node" id="node4" d="M1850 1548 c14 -8 57 -26 96 -41 93 -36 127 -72 127 -132 0 -38 -5
-51 -34 -81 -72 -75 -284 -142 -459 -145 -61 -1 -63 -2 -25 -10 68 -14 158
-10 261 11 122 24 195 52 257 96 26 19 49 34 52 34 9 0 4 -94 -9 -175 -8 -44
-13 -81 -12 -82 1 -2 18 24 36 58 61 108 146 144 198 84 20 -24 23 -35 18 -68
-8 -49 -29 -89 -64 -123 -27 -26 -137 -84 -159 -84 -7 0 -13 -4 -13 -10 0 -15
17 -12 76 15 30 14 57 25 60 25 18 0 96 78 113 114 30 61 28 136 -3 173 -22
25 -31 28 -85 28 -34 0 -61 3 -61 7 0 4 12 16 26 27 59 47 162 8 203 -76 73
-152 -60 -333 -277 -375 -31 -6 -85 -24 -120 -40 -51 -24 -74 -43 -120 -101
-136 -169 -190 -213 -324 -257 -38 -13 -68 -24 -68 -26 0 -9 96 8 139 25 105
40 145 73 318 264 50 54 95 79 184 102 64 16 74 19 139 48 133 58 214 233 164
353 -43 104 -93 134 -219 134 l-85 0 -32 66 c-22 45 -44 76 -70 95 -39 28
-137 62 -213 74 -38 6 -38 5 -15 -7z"></path>
<path class="node" id="node5" d="M904 1494 c-60 -31 -118 -86 -139 -131 -73 -152 -17 -452 122 -665
83 -126 269 -266 378 -283 l40 -6 -40 20 c-22 11 -44 20 -48 21 -5 0 -41 24
-80 54 -164 123 -269 307 -328 575 -40 179 -17 298 71 374 24 20 50 37 57 37
7 0 13 4 13 9 0 5 8 12 18 14 14 4 14 5 1 6 -9 0 -38 -11 -65 -25z"></path>
<path class="node" id="node6" d="M1178 1500 c-106 -18 -216 -60 -252 -95 -23 -23 -20 -61 7 -80 26
-18 126 -49 134 -41 3 3 -7 16 -22 29 -22 19 -27 29 -21 50 6 25 52 77 69 77
4 0 26 9 50 19 23 11 57 22 75 26 17 4 32 11 32 16 0 10 -5 10 -72 -1z"></path>
<path class="node" id="node7" d="M1730 1501 c0 -6 12 -13 28 -17 15 -3 54 -17 87 -30 120 -50 122
-110 6 -152 -84 -30 -213 -43 -449 -47 -107 -2 -196 -5 -198 -8 -19 -19 388
-25 532 -8 156 19 274 75 274 130 0 18 -37 57 -80 84 -24 15 -95 35 -153 43
-16 2 -33 6 -38 9 -5 4 -9 2 -9 -4z"></path>
<path class="node" id="node8" d="M1275 1379 c-27 -5 -75 -16 -105 -26 -47 -15 -55 -22 -55 -42 0 -18
7 -26 27 -32 22 -6 27 -3 30 13 2 13 20 27 53 41 45 19 70 21 268 22 216 0
236 6 82 25 -87 11 -234 10 -300 -1z"></path>
<path class="node" id="node9" d="M709 685 c-92 -34 -196 -92 -236 -131 -83 -84 -52 -138 138 -242 109
-60 218 -96 414 -134 77 -16 540 -15 655 0 47 7 136 18 199 26 63 8 119 20
125 26 12 13 -60 6 -119 -10 -32 -9 -89 -14 -330 -30 -188 -13 -399 1 -542 35
-57 14 -111 25 -121 25 -10 0 -22 4 -27 9 -6 4 -32 14 -60 21 -84 22 -176 70
-227 120 -40 38 -48 52 -48 82 0 56 45 108 136 156 101 53 114 62 94 61 -8 0
-31 -6 -51 -14z"></path>
<path class="node" id="node10" d="M2140 693 c14 -3 30 -8 35 -13 6 -4 26 -11 45 -15 76 -16 164 -77
185 -130 28 -65 -16 -129 -140 -201 -36 -21 -63 -40 -61 -42 5 -4 113 48 171
82 122 73 132 182 22 249 -51 31 -157 65 -222 70 -33 3 -49 3 -35 0z"></path>
<path class="node" id="node11" d="M963 496 c-31 -21 -53 -54 -53 -80 0 -26 69 -75 133 -95 34 -10 123
-25 197 -31 335 -31 684 25 743 121 14 23 0 67 -23 73 -71 20 -67 21 -47 -1
23 -26 22 -45 -5 -70 -47 -42 -151 -77 -280 -94 -110 -15 -366 -15 -450 0
-163 28 -248 104 -188 169 27 29 12 34 -27 8z"></path>
<path class="node" id="node12" d="M1318 403 c7 -3 16 -2 19 1 4 3 -2 6 -13 5 -11 0 -14 -3 -6 -6z"></path>
<path class="node" id="node13" d="M2038 243 c7 -3 16 -2 19 1 4 3 -2 6 -13 5 -11 0 -14 -3 -6 -6z"></path>
<path class="node" id="node14" d="M940 152 c0 -11 154 -57 260 -79 129 -25 372 -22 520 6 63 13 120 26
125 31 6 4 25 11 43 15 18 3 29 11 26 16 -4 6 -10 6 -18 0 -22 -18 -188 -42
-336 -48 -166 -6 -417 16 -528 48 -74 21 -92 23 -92 11z"></path>


</g>
<g transform="translate(0.000000,300.000000) scale(0.100000,-0.100000)" fill="#FFFFFF" stroke="none">

</g>
</svg>